<svg height="130" viewBox="0 0 613.33331 130" width="613.33331" xmlns="http://www.w3.org/2000/svg" xmlns:xlink="http://www.w3.org/1999/xlink"><clipPath id="a"><path d="m0 0h460v768h-460z"/></clipPath><clipPath id="b"><path d="m434.5188 728.4255v-12.5376h-4v12.5376z"/></clipPath><clipPath id="c"><path d="m0 0h460v768h-460z"/></clipPath><clipPath id="d"><path d="m25.68551 724.6379h408.629v4h-408.629z"/></clipPath><clipPath id="e"><path d="m25.68551 715.5922h408.629v4h-408.629z"/></clipPath><clipPath id="f"><path d="m29.51884 728.4255v-12.5376h-4v12.5376z"/></clipPath><clipPath id="g"><path d="m0 0h460v768h-460z"/></clipPath><clipPath id="h"><path d="m237.5227 725.9939h20.77832v13.01562h-20.77832z"/></clipPath><clipPath id="i"><path d="m270.0682 725.9939h20.77832v13.01562h-20.77832z"/></clipPath><clipPath id="j"><path d="m302.6136 725.9939h20.77832v13.01562h-20.77832z"/></clipPath><clipPath id="k"><path d="m335.1591 725.9939h20.77832v13.01562h-20.77832z"/></clipPath><clipPath id="l"><path d="m367.7046 725.9939h20.77832v13.01562h-20.77832z"/></clipPath><clipPath id="m"><path d="m400.25 725.9939h20.77832v13.01562h-20.77832z"/></clipPath><clipPath id="n"><path d="m204.9773 725.9939h20.77832v13.01562h-20.77832z"/></clipPath><clipPath id="o"><path d="m172.4318 725.9939h20.77832v13.01562h-20.77832z"/></clipPath><clipPath id="p"><path d="m139.8864 725.9939h20.77832v13.01562h-20.77832z"/></clipPath><clipPath id="q"><path d="m107.3409 725.9939h20.77832v13.01562h-20.77832z"/></clipPath><clipPath id="r"><path d="m74.79546 725.9939h20.77832v13.01562h-20.77832z"/></clipPath><clipPath id="s"><path d="m42.25 725.9939h20.77832v13.01562h-20.77832z"/></clipPath><clipPath id="t"><path d="m237.5227 704.9939h20.77832v13.01562h-20.77832z"/></clipPath><clipPath id="u"><path d="m270.0682 704.9939h20.77832v13.01562h-20.77832z"/></clipPath><clipPath id="v"><path d="m302.6136 704.9939h20.77832v13.01562h-20.77832z"/></clipPath><clipPath id="w"><path d="m335.1591 704.9939h20.77832v13.01562h-20.77832z"/></clipPath><clipPath id="x"><path d="m367.7046 704.9939h20.77832v13.01562h-20.77832z"/></clipPath><clipPath id="y"><path d="m400.25 704.9939h20.77832v13.01562h-20.77832z"/></clipPath><clipPath id="z"><path d="m204.9773 704.9939h20.77832v13.01562h-20.77832z"/></clipPath><clipPath id="A"><path d="m172.4318 704.9939h20.77832v13.01562h-20.77832z"/></clipPath><clipPath id="B"><path d="m139.8864 704.9939h20.77832v13.01562h-20.77832z"/></clipPath><clipPath id="C"><path d="m107.3409 704.9939h20.77832v13.01562h-20.77832z"/></clipPath><clipPath id="D"><path d="m74.79546 704.9939h20.77832v13.01562h-20.77832z"/></clipPath><clipPath id="E"><path d="m42.25 704.9939h20.77832v13.01562h-20.77832z"/></clipPath><clipPath id="F"><path d="m43.49916 737.3612h18.28001v26.94001h-18.28001z"/></clipPath><clipPath id="G"><path d="m76.04461 737.3612h18.28001v26.94001h-18.28001z"/></clipPath><clipPath id="H"><path d="m108.5901 737.3612h18.28001v26.94001h-18.28001z"/></clipPath><clipPath id="I"><path d="m141.1355 737.3612h18.28001v26.94001h-18.28001z"/></clipPath><clipPath id="J"><path d="m173.681 737.3612h18.28001v26.94001h-18.28001z"/></clipPath><clipPath id="K"><path d="m206.2264 737.3612h18.28001v26.94001h-18.28001z"/></clipPath><clipPath id="L"><path d="m238.7719 737.3612h18.28001v26.94001h-18.28001z"/></clipPath><clipPath id="M"><path d="m271.3173 737.3612h18.28001v26.94001h-18.28001z"/></clipPath><clipPath id="N"><path d="m303.8628 737.3612h18.28001v26.94001h-18.28001z"/></clipPath><clipPath id="O"><path d="m332.2382 737.3612h26.62001v26.94001h-26.62001z"/></clipPath><clipPath id="P"><path d="m364.7837 737.3612h26.62001v26.94001h-26.62001z"/></clipPath><clipPath id="Q"><path d="m397.3291 737.3612h26.62001v26.94001h-26.62001z"/></clipPath><clipPath id="R"><path d="m42.53165 680.3612h20.21501v26.94001h-20.21501z"/></clipPath><clipPath id="S"><path d="m74.93461 680.3612h20.50001v26.94001h-20.50001z"/></clipPath><clipPath id="T"><path d="m107.2026 680.3612h21.05501v26.94001h-21.05501z"/></clipPath><clipPath id="U"><path d="m139.748 680.3612h21.05501v26.94001h-21.05501z"/></clipPath><clipPath id="V"><path d="m172.991 680.3612h19.66001v26.94001h-19.66001z"/></clipPath><clipPath id="W"><path d="m205.9489 680.3612h18.83501v26.94001h-18.83501z"/></clipPath><clipPath id="X"><path d="m237.3844 680.3612h21.05501v26.94001h-21.05501z"/></clipPath><clipPath id="Y"><path d="m271.3173 680.3612h18.28001v26.94001h-18.28001z"/></clipPath><clipPath id="Z"><path d="m302.6178 680.3612h20.77001v26.94001h-20.77001z"/></clipPath><clipPath id="aa"><path d="m336.1307 680.3612h18.83501v26.94001h-18.83501z"/></clipPath><clipPath id="ab"><path d="m366.3212 680.3612h23.54501v26.94001h-23.54501z"/></clipPath><clipPath id="ac"><path d="m400.1116 680.3612h21.05501v26.94001h-21.05501z"/></clipPath><g transform="matrix(1.3333333 0 0 -1.3333333 0 1024)"><g clip-path="url(#a)"><path d="m0 768h460v-768h-460z" fill="#fff"/></g><g clip-path="url(#b)"><g clip-path="url(#c)"><path d="m0 0h10.53761" fill="none" stroke="#000" stroke-width="2" transform="matrix(0 -1 -1 0 432.5188 727.4255)"/></g></g><g clip-path="url(#d)"><path d="m0 0h406.629" fill="none" stroke="#000" stroke-width="2" transform="matrix(1 0 0 -1 26.68551 726.6379)"/></g><g clip-path="url(#e)"><path d="m0 0h406.629" fill="none" stroke="#000" stroke-width="2" transform="matrix(1 0 0 -1 26.68551 717.5922)"/></g><g clip-path="url(#f)"><g clip-path="url(#g)"><path d="m0 0h10.53761" fill="none" stroke="#000" stroke-width="2" transform="matrix(0 -1 -1 0 27.51884 727.4255)"/></g></g><g clip-path="url(#h)"><path d="m238.5227 738.0095h18.7783v-11.0156h-18.7783z"/></g><g clip-path="url(#i)"><path d="m271.0682 738.0095h18.7783v-11.0156h-18.7783z"/></g><g clip-path="url(#j)"><path d="m303.6136 738.0095h18.7784v-11.0156h-18.7784z"/></g><g clip-path="url(#k)"><path d="m336.1591 738.0095h18.7783v-11.0156h-18.7783z"/></g><g clip-path="url(#l)"><path d="m368.7046 738.0095h18.7783v-11.0156h-18.7783z"/></g><g clip-path="url(#m)"><path d="m401.25 738.0095h18.7783v-11.0156h-18.7783z"/></g><g clip-path="url(#n)"><path d="m205.9773 738.0095h18.7783v-11.0156h-18.7783z"/></g><g clip-path="url(#o)"><path d="m173.4318 738.0095h18.7783v-11.0156h-18.7783z"/></g><g clip-path="url(#p)"><path d="m140.8864 738.0095h18.7783v-11.0156h-18.7783z"/></g><g clip-path="url(#q)"><path d="m108.3409 738.0095h18.7783v-11.0156h-18.7783z"/></g><g clip-path="url(#r)"><path d="m75.79546 738.0095h18.77832v-11.0156h-18.77832z"/></g><g clip-path="url(#s)"><path d="m43.25 738.0095h18.77832v-11.0156h-18.77832z"/></g><g clip-path="url(#t)"><path d="m238.5227 717.0095h18.7783v-11.0156h-18.7783z"/></g><g clip-path="url(#u)"><path d="m271.0682 717.0095h18.7783v-11.0156h-18.7783z"/></g><g clip-path="url(#v)"><path d="m303.6136 717.0095h18.7784v-11.0156h-18.7784z"/></g><g clip-path="url(#w)"><path d="m336.1591 717.0095h18.7783v-11.0156h-18.7783z"/></g><g clip-path="url(#x)"><path d="m368.7046 717.0095h18.7783v-11.0156h-18.7783z"/></g><g clip-path="url(#y)"><path d="m401.25 717.0095h18.7783v-11.0156h-18.7783z"/></g><g clip-path="url(#z)"><path d="m205.9773 717.0095h18.7783v-11.0156h-18.7783z"/></g><g clip-path="url(#A)"><path d="m173.4318 717.0095h18.7783v-11.0156h-18.7783z"/></g><g clip-path="url(#B)"><path d="m140.8864 717.0095h18.7783v-11.0156h-18.7783z"/></g><g clip-path="url(#C)"><path d="m108.3409 717.0095h18.7783v-11.0156h-18.7783z"/></g><g clip-path="url(#D)"><path d="m75.79546 717.0095h18.77832v-11.0156h-18.77832z"/></g><g clip-path="url(#E)"><path d="m43.25 717.0095h18.77832v-11.0156h-18.77832z"/></g><g clip-path="url(#F)"><text font-family="Helvetica Neue" font-size="15" font-weight="bold" transform="matrix(1 0 0 -1 48 746)"><tspan x="0" y="0">1</tspan></text></g><g clip-path="url(#G)"><text font-family="Helvetica Neue" font-size="15" font-weight="bold" transform="matrix(1 0 0 -1 81 746)"><tspan x="0" y="0">2</tspan></text></g><g clip-path="url(#H)"><text font-family="Helvetica Neue" font-size="15" font-weight="bold" transform="matrix(1 0 0 -1 114 746)"><tspan x="0" y="0">3</tspan></text></g><g clip-path="url(#I)"><text font-family="Helvetica Neue" font-size="15" font-weight="bold" transform="matrix(1 0 0 -1 146 746)"><tspan x="0" y="0">4</tspan></text></g><g clip-path="url(#J)"><text font-family="Helvetica Neue" font-size="15" font-weight="bold" transform="matrix(1 0 0 -1 179 746)"><tspan x="0" y="0">5</tspan></text></g><g clip-path="url(#K)"><text font-family="Helvetica Neue" font-size="15" font-weight="bold" transform="matrix(1 0 0 -1 211 746)"><tspan x="0" y="0">6</tspan></text></g><g clip-path="url(#L)"><text font-family="Helvetica Neue" font-size="15" font-weight="bold" transform="matrix(1 0 0 -1 244 746)"><tspan x="0" y="0">7</tspan></text></g><g clip-path="url(#M)"><text font-family="Helvetica Neue" font-size="15" font-weight="bold" transform="matrix(1 0 0 -1 276 746)"><tspan x="0" y="0">8</tspan></text></g><g clip-path="url(#N)"><text font-family="Helvetica Neue" font-size="15" font-weight="bold" transform="matrix(1 0 0 -1 309 746)"><tspan x="0" y="0">9</tspan></text></g><g clip-path="url(#O)"><text font-family="Helvetica Neue" font-size="15" font-weight="bold" transform="matrix(1 0 0 -1 337 746)"><tspan x="0 8.34" y="0">10</tspan></text></g><g clip-path="url(#P)"><text font-family="Helvetica Neue" font-size="15" font-weight="bold" transform="matrix(1 0 0 -1 370 746)"><tspan x="0 8.34" y="0">11</tspan></text></g><g clip-path="url(#Q)"><text font-family="Helvetica Neue" font-size="15" font-weight="bold" transform="matrix(1 0 0 -1 402 746)"><tspan x="0 8.34" y="0">12</tspan></text></g><g clip-path="url(#R)"><text font-family="Helvetica Neue" font-size="15" font-weight="bold" transform="matrix(1 0 0 -1 48 689)"><tspan x="0" y="0">A</tspan></text></g><g clip-path="url(#S)"><text font-family="Helvetica Neue" font-size="15" font-weight="bold" transform="matrix(1 0 0 -1 80 689)"><tspan x="0" y="0">B</tspan></text></g><g clip-path="url(#T)"><text font-family="Helvetica Neue" font-size="15" font-weight="bold" transform="matrix(1 0 0 -1 112 689)"><tspan x="0" y="0">C</tspan></text></g><g clip-path="url(#U)"><text font-family="Helvetica Neue" font-size="15" font-weight="bold" transform="matrix(1 0 0 -1 145 689)"><tspan x="0" y="0">D</tspan></text></g><g clip-path="url(#V)"><text font-family="Helvetica Neue" font-size="15" font-weight="bold" transform="matrix(1 0 0 -1 178 689)"><tspan x="0" y="0">E</tspan></text></g><g clip-path="url(#W)"><text font-family="Helvetica Neue" font-size="15" font-weight="bold" transform="matrix(1 0 0 -1 211 689)"><tspan x="0" y="0">F</tspan></text></g><g clip-path="url(#X)"><text font-family="Helvetica Neue" font-size="15" font-weight="bold" transform="matrix(1 0 0 -1 242 689)"><tspan x="0" y="0">H</tspan></text></g><g clip-path="url(#Y)"><text font-family="Helvetica Neue" font-size="15" font-weight="bold" transform="matrix(1 0 0 -1 276 689)"><tspan x="0" y="0">J</tspan></text></g><g clip-path="url(#Z)"><text font-family="Helvetica Neue" font-size="15" font-weight="bold" transform="matrix(1 0 0 -1 308 689)"><tspan x="0" y="0">K</tspan></text></g><g clip-path="url(#aa)"><text font-family="Helvetica Neue" font-size="15" font-weight="bold" transform="matrix(1 0 0 -1 341 689)"><tspan x="0" y="0">L</tspan></text></g><g clip-path="url(#ab)"><text font-family="Helvetica Neue" font-size="15" font-weight="bold" transform="matrix(1 0 0 -1 371 689)"><tspan x="0" y="0">M</tspan></text></g><g clip-path="url(#ac)"><text font-family="Helvetica Neue" font-size="15" font-weight="bold" transform="matrix(1 0 0 -1 405 689)"><tspan x="0" y="0">N</tspan></text></g></g></svg>